<svg width="40" height="40" viewBox="0 0 40 40" fill="none" xmlns="http://www.w3.org/2000/svg">
<rect y="0.00585938" width="40" height="40" rx="7.27273" fill="#7030F8"/>
<g opacity="0.8">
<path d="M21.6663 12.2969H14.9997C14.5576 12.2969 14.1337 12.4725 13.8212 12.785C13.5086 13.0976 13.333 13.5215 13.333 13.9635V27.2969C13.333 27.7389 13.5086 28.1628 13.8212 28.4754C14.1337 28.7879 14.5576 28.9635 14.9997 28.9635H24.9997C25.4417 28.9635 25.8656 28.7879 26.1782 28.4754C26.4907 28.1628 26.6663 27.7389 26.6663 27.2969V17.2969L21.6663 12.2969Z" stroke="white" stroke-width="1.875" stroke-linecap="round" stroke-linejoin="round"/>
<path d="M23.3337 24.7969H16.667" stroke="white" stroke-width="1.875" stroke-linecap="round" stroke-linejoin="round"/>
<path d="M23.3337 21.4648H16.667" stroke="white" stroke-width="1.875" stroke-linecap="round" stroke-linejoin="round"/>
<path d="M18.3337 18.1309H17.5003H16.667" stroke="white" stroke-width="1.875" stroke-linecap="round" stroke-linejoin="round"/>
<path d="M21.667 12.2969V17.2969H26.667" stroke="white" stroke-width="1.875" stroke-linecap="round" stroke-linejoin="round"/>
</g>
</svg>
